# xmcd CD database file
#
# Track frame offsets:
#	150
#	16878
#	40642
#	62090
#	81765
#	104916
#	121233
#	141186
#	163374
#	189855
#	230400
#	249141
#	268886
#	295294
#	318089
#
# Disc length: 4458 seconds
#
# Revision: 0
# Processed by: cddbd v1.5.1PL2 Copyright (c) Steve Scherf et al.
# Submitted via: CDex 1.70beta2
#
DISCID=ce11680f
DTITLE=Slaping Balls - Garuda
DYEAR=2006
DGENRE=Jazz
TTITLE0=Fields of Gold
TTITLE1=Sunday Bloody Sunday
TTITLE2=Losing My Religion
TTITLE3=What It Is
TTITLE4=Another Day In Paradise
TTITLE5=Save Tonight
TTITLE6=One
TTITLE7=The Wall
TTITLE8=C'est Écrit
TTITLE9=Sultans Of Swing (Live)
TTITLE10=Anna Song
TTITLE11=Ulysse Et Le Saumon
TTITLE12=Youssou
TTITLE13=Anonyme
TTITLE14=Mal Á La Tête
EXTD=YEAR: 2006
EXTT0=
EXTT1=
EXTT2=
EXTT3=
EXTT4=
EXTT5=
EXTT6=
EXTT7=
EXTT8=
EXTT9=
EXTT10=
EXTT11=
EXTT12=
EXTT13=
EXTT14=
PLAYORDER=
